<svg width="106" height="40" viewBox="0 0 106 40" fill="none" xmlns="http://www.w3.org/2000/svg">
<g clip-path="url(#clip0_1674_1663)">
<path d="M15.0677 6.91244H16.4627V0.231445H15.0677C8.57512 0.231445 3.309 5.49756 3.309 11.9901V13.4711H0.601562V18.6645H3.309V32.0232H9.98999V18.6645H12.6511C14.3536 18.6645 15.7321 17.2827 15.7321 15.5835V13.4744H9.98999V11.9934C9.98999 9.18351 12.2644 6.91244 15.0677 6.91244Z" fill="#213F7A"/>
<path d="M25.1761 10.2378H18.9414V31.7386H25.1761V10.2378Z" fill="#213F7A"/>
<path d="M50.4621 10.2381V28.1423C50.4621 36.1357 46.1448 39.8117 38.3927 39.8117C34.3167 39.8117 30.3596 38.8134 27.8406 36.853L30.32 32.377C32.158 33.8547 35.1563 34.8167 37.9133 34.8167C42.31 34.8167 44.2274 32.82 44.2274 28.9423V28.0233C42.5877 29.8216 40.2307 30.7009 37.434 30.7009C31.4803 30.7009 26.6836 26.5852 26.6836 20.3076C26.6836 14.0299 31.4803 9.91748 37.434 9.91748C40.4324 9.91748 42.9084 10.9158 44.5481 12.9952C44.5481 11.4712 45.7844 10.2381 47.3051 10.2381H50.4621ZM44.31 20.3076C44.31 17.1505 41.953 15.0315 38.6737 15.0315C35.3976 15.0315 32.9976 17.1505 32.9976 20.3076C32.9976 23.4646 35.3943 25.5836 38.6737 25.5836C41.9497 25.5836 44.31 23.4646 44.31 20.3076Z" fill="#213F7A"/>
<path d="M51.6641 20.9886C51.6641 14.5125 56.6591 9.91748 63.4955 9.91748C70.3285 9.91748 75.2872 14.5125 75.2872 20.9886C75.2872 27.4646 70.3318 32.0596 63.4955 32.0596C56.6624 32.0596 51.6641 27.4613 51.6641 20.9886ZM68.9698 20.9886C68.9698 17.2729 66.6128 15.0348 63.4955 15.0348C60.3781 15.0348 57.9814 17.2729 57.9814 20.9886C57.9814 24.7043 60.3781 26.9423 63.4955 26.9423C66.6128 26.9423 68.9698 24.7043 68.9698 20.9886Z" fill="#213F7A"/>
<path d="M90.1027 9.91748V15.6729C89.5837 15.6332 89.1837 15.5935 88.7043 15.5935C85.2663 15.5935 82.9886 17.4712 82.9886 21.5869V31.739H76.7539V10.2381H79.8713C81.4382 10.2381 82.7076 11.5076 82.7076 13.0745C84.2283 10.9952 86.7837 9.91748 90.1027 9.91748Z" fill="#213F7A"/>
<path d="M105.099 9.91748V15.6729C104.58 15.6332 104.18 15.5935 103.7 15.5935C100.262 15.5935 97.9847 17.4712 97.9847 21.5869V31.739H91.75V10.2381H94.8674C96.4343 10.2381 97.7037 11.5076 97.7037 13.0745C99.2244 10.9952 101.78 9.91748 105.099 9.91748Z" fill="#213F7A"/>
<path d="M25.0902 3.15034V0.228027H18.9414V6.51563H21.7249C23.5827 6.51563 25.0902 5.00819 25.0902 3.15034Z" fill="#00A54F"/>
</g>
<defs>
<clipPath id="clip0_1674_1663">
<rect width="104.793" height="40" fill="white" transform="translate(0.601562)"/>
</clipPath>
</defs>
</svg>
